PathFileType	3	(X/Y/Z)	E:\ViconData\BIOM9541 2025\Week 7\Wed1100\Stat Cal.trc
DataRate	CameraRate	NumFrames	NumMarkers	Units	OrigDataRate	OrigDataStartFrame	OrigNumFrames
200.0	200.0	18	19	mm	200.0	1	106	
Frame#	Time	C7			CLAV			RBAK			LASI			RASI			LPSI			RPSI			LTHI			LKNE			LTIB			LANK			LHEE			LTOE			RTHI			RKNE			RTIB			RANK			RHEE			RTOE			
		X1	Y1	Z1	X2	Y2	Z2	X3	Y3	Z3	X4	Y4	Z4	X5	Y5	Z5	X6	Y6	Z6	X7	Y7	Z7	X8	Y8	Z8	X9	Y9	Z9	X10	Y10	Z10	X11	Y11	Z11	X12	Y12	Z12	X13	Y13	Z13	X14	Y14	Z14	X15	Y15	Z15	X16	Y16	Z16	X17	Y17	Z17	X18	Y18	Z18	X19	Y19	Z19	
1	0	230.40598	1319.5221	-1007.8099	235.72919	1263.2899	-847.36261	74.799927	1241.067	-1002.4736	349.35333	884.39459	-811.20099	97.161995	895.26837	-804.8847	262.88846	952.4682	-989.12018	189.37984	952.22186	-985.93616	393.33664	552.24701	-875.57312	379.7775	417.09021	-909.38721	395.65799	204.8259	-935.57361	376.98502	62.683208	-960.23193	323.94644	48.543182	-990.91602	377.14252	37.420662	-809.84814	37.353752	726.99457	-866.17957	50.042164	418.18698	-917.51605	30.572336	319.96069	-931.29614	50.41576	72.200981	-951.74066	101.61002	50.058456	-994.76019	61.101494	39.354733	-809.54205
2	0.005	230.4157	1319.5571	-1007.8027	235.92052	1263.1274	-847.10675	74.840714	1241.0776	-1002.4624	349.36996	884.35175	-811.20392	97.154526	895.24927	-804.88342	262.88315	952.54034	-989.10461	189.35959	952.29858	-985.95203	393.31042	552.3288	-875.315	379.75183	417.16742	-909.15448	395.63522	204.92896	-935.26605	377.05295	62.819878	-960.31537	323.92697	48.651863	-990.92249	377.12857	37.470226	-809.77924	37.36829	727.01007	-866.10297	50.498585	417.72067	-917.45203	30.12887	320.4198	-931.39697	50.377514	72.263542	-951.64026	101.61758	50.151985	-994.76465	61.089622	39.367535	-809.5072
3	0.01	230.44185	1319.5829	-1007.7853	235.92723	1263.1172	-847.11475	74.855759	1241.0875	-1002.4567	349.33224	884.34259	-811.15662	97.160431	895.22461	-804.87994	262.88135	952.56555	-989.09253	189.35918	952.34155	-985.93134	393.29617	552.34143	-875.24298	379.74136	417.17715	-909.0423	395.61813	204.94223	-935.18115	377.10574	62.917828	-960.39539	323.93774	48.616127	-990.86975	377.13187	37.490181	-809.758	37.364967	727.00934	-866.06641	50.461941	417.73419	-917.42999	30.128517	320.4249	-931.35901	50.401169	72.285927	-951.6178	101.60917	50.187019	-994.75879	61.087448	39.358753	-809.49518
4	0.015	230.45935	1319.5657	-1007.7435	235.73698	1263.2612	-847.33612	74.86013	1241.0887	-1002.4581	349.3056	884.35632	-811.15027	97.116341	895.26105	-804.86768	262.8988	952.52448	-989.05652	189.37015	952.32281	-985.90759	393.32138	552.2674	-875.43774	379.75098	417.11517	-909.20105	395.6553	204.87448	-935.37561	377.10745	62.839016	-960.3587	323.95157	48.557358	-990.87439	377.15573	37.44223	-809.81677	37.339928	727.01288	-866.11554	50.446487	417.72858	-917.43799	30.102245	320.4144	-931.38745	50.410789	72.251717	-951.67377	101.64565	50.111782	-994.75336	61.083138	39.360806	-809.53613
5	0.02	230.49109	1319.5094	-1007.7098	235.73921	1263.2902	-847.31982	74.882324	1241.0654	-1002.4642	349.30804	884.38104	-811.13641	97.108627	895.26324	-804.87921	262.91653	952.45374	-989.02899	189.38293	952.2262	-985.87427	393.34006	552.18988	-875.53717	379.78464	417.03726	-909.40033	395.68268	204.78529	-935.62054	377.02606	62.663517	-960.23401	323.98611	48.490742	-990.89484	377.19397	37.370827	-809.89465	37.321171	726.98962	-866.1499	50.03286	418.16934	-917.54865	30.120527	320.34705	-931.43475	50.486042	72.167107	-951.79785	101.66898	50.023335	-994.74536	61.081169	39.354301	-809.55023
6	0.025	230.50092	1319.4763	-1007.6948	235.91138	1263.1674	-847.0426	74.886841	1241.0452	-1002.4662	349.30682	884.36975	-811.13208	97.11261	895.23254	-804.90076	262.91379	952.38605	-989.0152	189.38339	952.17865	-985.86133	393.34686	552.15326	-875.64728	379.79144	416.9747	-909.49939	396.21854	204.05731	-938.5683	377.01691	62.609375	-960.21509	323.97336	48.412174	-990.86371	377.20779	37.322365	-809.94843	37.325951	726.9505	-866.15094	50.053471	418.09448	-917.55811	30.12286	320.30823	-931.43738	50.491558	72.116974	-951.82581	101.64939	49.9548	-994.73792	61.085823	39.354088	-809.56238
7	0.03	230.50224	1319.481	-1007.6862	235.91003	1263.1233	-847.03961	74.933037	1241.0573	-1002.4674	349.31357	884.36194	-811.11609	97.109062	895.18213	-804.90411	262.91177	952.41132	-989.00446	189.3688	952.17773	-985.85913	393.31537	552.17767	-875.52997	379.7598	416.99258	-909.3606	395.6814	204.79234	-935.57843	377.0224	62.640114	-960.22461	324.25522	48.372395	-990.64703	377.18683	37.333012	-809.92761	37.338921	726.92798	-866.09113	50.090214	418.07312	-917.59277	30.143808	320.29855	-931.43317	50.500866	72.137672	-951.83911	101.63623	50.000465	-994.73608	61.079212	39.352806	-809.53577
8	0.035	230.51942	1319.5092	-1007.6661	235.90479	1263.1067	-847.01526	75.003471	1241.0157	-1002.4366	349.30804	884.3363	-811.099	97.098198	895.15533	-804.91443	262.91434	952.44629	-989.01471	189.37807	952.22357	-985.8681	393.29892	552.2381	-875.36169	379.73019	417.07779	-909.20062	395.65942	204.89934	-935.36511	377.09525	62.741436	-960.31677	324.00024	48.609257	-990.91467	377.19928	37.397942	-809.91071	37.361134	726.90991	-866.05621	50.541496	417.67566	-917.54974	30.176882	320.29132	-931.37823	50.498119	72.183266	-951.81659	101.65394	50.024117	-994.73621	61.096504	39.351681	-809.5387
9	0.04	230.56224	1319.4788	-1007.6438	235.9847	1263.1606	-846.68097	75.096832	1240.9398	-1002.4054	349.31787	884.34601	-811.10034	97.085167	895.15094	-804.91602	262.93735	952.42505	-989.00873	189.39793	952.20135	-985.87006	393.25745	552.29077	-875.23267	379.73318	417.1171	-909.12189	395.65167	204.95166	-935.29669	377.16629	62.797195	-960.39899	324.03973	48.462326	-990.83057	377.228	37.433296	-809.91797	37.387768	726.89563	-866.0661	50.574028	417.64362	-917.60492	30.220324	320.28503	-931.42426	50.553436	72.178169	-951.87512	101.70354	50.005333	-994.73694	61.133167	39.344559	-809.56934
10	0.045	230.59839	1319.3995	-1007.6134	235.88521	1263.1132	-846.9939	75.11982	1240.894	-1002.3829	349.31659	884.38837	-811.10303	97.054512	895.17554	-804.89697	262.95013	952.34735	-988.98718	189.44218	952.12299	-985.85107	393.27966	552.2348	-875.39557	379.73611	417.07599	-909.26398	395.6637	204.92606	-935.45276	377.11188	62.640301	-960.28973	324.32306	48.331696	-990.65088	377.23935	37.374176	-809.9519	37.385921	726.87567	-866.10742	50.587074	417.62009	-917.64783	30.231506	320.25162	-931.48993	50.589458	72.122505	-951.94214	101.72694	49.910728	-994.73138	61.161232	39.315056	-809.59747
11	0.05	230.6114	1319.3894	-1007.5725	235.8856	1263.1398	-846.98883	75.141312	1240.8705	-1002.3562	349.28735	884.4278	-811.07556	97.052025	895.19086	-804.91101	262.97458	952.29193	-988.97211	189.44868	952.06543	-985.83582	393.28448	552.19446	-875.48297	379.75385	417.01602	-909.37714	395.69702	204.867	-935.60419	377.07251	62.556461	-960.23254	324.10297	48.406799	-990.86426	377.26361	37.339153	-809.97644	37.38348	726.86719	-866.13019	50.246475	417.98965	-917.78583	30.210384	320.228	-931.49988	50.700996	72.094719	-952.06702	101.72883	49.875713	-994.73682	61.164619	39.314278	-809.6131
12	0.055	230.59923	1319.425	-1007.5463	235.90315	1263.1173	-846.97253	75.119835	1240.9092	-1002.3736	349.29498	884.41882	-811.0918	97.046738	895.17242	-804.91516	262.96286	952.32141	-988.95508	189.42554	952.1109	-985.83929	393.26062	552.18762	-875.45123	379.7439	417.02908	-909.30133	395.68881	204.87724	-935.57721	377.12323	62.618176	-960.29376	324.10187	48.48027	-990.88568	377.2514	37.325035	-809.97266	37.370296	726.87463	-866.11633	50.597534	417.64807	-917.67419	30.591064	319.89874	-931.3692	51.01889	71.839531	-952.05206	101.72224	49.900978	-994.74365	61.155006	39.335228	-809.59967
13	0.06	230.56802	1319.5002	-1007.5355	235.93953	1263.166	-846.66498	75.170265	1240.9092	-1002.3507	349.29462	884.41736	-811.08624	97.041954	895.11041	-804.935	262.94791	952.40253	-988.95697	189.39372	952.21741	-985.83911	393.24393	552.21893	-875.23242	379.71942	417.06155	-909.05695	396.00516	204.44955	-937.59137	377.14981	62.736668	-960.34802	324.10089	48.556667	-990.87109	377.26974	37.397251	-810.00317	37.388813	726.87329	-866.04047	50.611481	417.66913	-917.67072	30.577156	319.92566	-931.30829	50.680702	72.101776	-951.97296	101.73244	49.929882	-994.7196	61.138706	39.362595	-809.56219
14	0.065	230.5802	1319.5468	-1007.5048	235.92696	1263.1564	-846.6499	75.17054	1240.9434	-1002.3426	349.27243	884.41016	-811.05548	97.024773	895.11798	-804.92297	262.96149	952.42822	-988.95081	189.39838	952.255	-985.83527	393.23141	552.24646	-875.23004	379.72769	417.06421	-909.05609	395.99414	204.49063	-937.45258	377.19452	62.807301	-960.39294	324.12326	48.573277	-990.87585	377.25238	37.382046	-809.98016	37.39613	726.8833	-866.03668	50.606712	417.66888	-917.63428	30.316097	320.21402	-931.41663	50.700375	72.123734	-951.9762	101.73962	49.953087	-994.73352	61.14275	39.393673	-809.5625
15	0.07	230.60353	1319.5547	-1007.4706	235.93979	1263.1797	-846.64185	75.189423	1240.9231	-1002.3127	349.26318	884.43854	-811.0177	97.018806	895.14288	-804.90485	262.96695	952.39056	-988.93396	189.43604	952.18048	-985.82776	393.23959	552.20496	-875.34619	379.74341	417.01404	-909.16626	396.03851	204.4382	-937.67194	377.18408	62.736111	-960.35681	324.34006	48.38134	-990.66803	377.25394	37.333717	-809.974	37.381298	726.88464	-866.05859	50.293858	418.00897	-917.74646	30.325443	320.20123	-931.42505	50.737049	72.079155	-952.008	101.76099	49.934788	-994.7428	61.163982	39.395561	-809.58691
16	0.075	230.68887	1319.4211	-1007.2852	235.95004	1263.1855	-846.62195	75.202263	1240.9072	-1002.2737	349.26843	884.50061	-811.01575	97.005943	895.16449	-804.90747	262.99246	952.30377	-988.92017	189.45851	952.11853	-985.80682	393.24823	552.12585	-875.44928	379.75876	416.97211	-909.29236	396.10904	204.28961	-938.03064	377.12851	62.588573	-960.26685	324.15094	48.437435	-990.86816	377.31363	37.299076	-810.06561	37.350555	726.8725	-866.07819	50.294273	417.98859	-917.7793	30.31151	320.19873	-931.48035	50.801147	72.045357	-952.07556	101.77753	49.881939	-994.73419	61.172295	39.381668	-809.65112
17	0.08	230.70049	1319.4198	-1007.254	235.96581	1263.1793	-846.5976	75.219864	1240.899	-1002.2491	349.267	884.4668	-810.99219	96.996651	895.18634	-804.89551	262.98193	952.30957	-988.90985	189.44371	952.12048	-985.80499	393.26218	552.15137	-875.4765	379.76239	416.98807	-909.27612	396.13461	204.27907	-938.17957	377.12857	62.578156	-960.27759	324.14673	48.382908	-990.84802	377.2836	37.301723	-810.01062	37.368019	726.8609	-866.11462	50.304192	417.97174	-917.77271	30.319244	320.16177	-931.46143	50.798809	72.055069	-952.1272	101.76447	49.867363	-994.72607	61.171978	39.360828	-809.6441
18	0.085	230.69394	1319.4365	-1007.2403	235.96312	1263.1479	-846.54523	75.259964	1240.9014	-1002.2161	349.27045	884.41064	-810.97766	97.015701	895.12494	-804.91632	262.97116	952.35272	-988.90601	189.42746	952.14948	-985.81689	393.20529	552.21814	-875.24744	379.70276	417.0318	-909.09534	395.66351	204.95737	-935.41315	377.11395	62.642677	-960.2749	324.10858	48.508484	-990.87683	377.27869	37.35997	-810.04041	37.394684	726.82739	-866.04413	50.641899	417.63181	-917.7099	30.619251	319.89685	-931.3764	50.752735	72.07415	-952.06934	101.74498	49.89547	-994.72162	61.156898	39.352886	-809.57715
